<svg width="177" height="44" viewBox="0 0 177 44" fill="none" xmlns="http://www.w3.org/2000/svg">
<path fill-rule="evenodd" clip-rule="evenodd" d="M59.8791 17.491C60.1062 19.1157 59.8791 22.3254 58.4981 22.3254C57.7022 22.3254 56.542 21.9355 55.1526 21.4686C54.1187 21.1212 52.9579 20.7311 51.726 20.4273C49.312 19.8321 46.6248 19.69 44.0838 19.69C41.8624 19.69 40.0616 21.5004 40.0616 23.7336C40.0616 25.9668 41.8624 27.7772 44.0838 27.7772C44.9617 27.7772 45.8102 27.7449 46.6058 27.7147C49.792 27.5934 52.132 27.5043 52.132 29.6499C52.132 33.2362 42.9783 40.2958 32.8049 41.7332C16.3064 44.0643 1.67866 36.99 0.132856 25.9325C-1.41295 14.875 10.7086 4.02142 27.2071 1.69037C43.7055 -0.640676 58.3333 6.43353 59.8791 17.491ZM30.5543 29.4945C33.1014 29.4945 35.1663 27.4296 35.1663 24.8825C35.1663 22.3354 33.1014 20.2705 30.5543 20.2705C28.0072 20.2705 25.9424 22.3354 25.9424 24.8825C25.9424 27.4296 28.0072 29.4945 30.5543 29.4945Z" fill="#F77777"/>
<path d="M75.3088 31.4592C74.9706 31.4592 74.7085 31.3662 74.5225 31.1802C74.3534 30.9772 74.2688 30.7067 74.2688 30.3684V14.4641C74.2688 14.1089 74.3618 13.8468 74.5479 13.6777C74.7339 13.4917 74.996 13.3987 75.3342 13.3987H81.3459C83.2568 13.3987 84.728 13.8722 85.7596 14.8192C86.7911 15.7493 87.3069 17.0683 87.3069 18.7763C87.3069 20.4673 86.7911 21.7863 85.7596 22.7333C84.728 23.6803 83.2568 24.1538 81.3459 24.1538H76.3488V30.3684C76.3488 30.7067 76.2643 30.9772 76.0952 31.1802C75.9261 31.3662 75.664 31.4592 75.3088 31.4592ZM76.3488 22.4036H81.0923C82.462 22.4036 83.4936 22.0992 84.1869 21.4904C84.8971 20.8647 85.2523 19.96 85.2523 18.7763C85.2523 17.5756 84.8971 16.6709 84.1869 16.0621C83.4936 15.4364 82.462 15.1236 81.0923 15.1236H76.3488V22.4036ZM93.3033 31.5099C92.4578 31.5099 91.6968 31.3493 91.0204 31.028C90.3609 30.6897 89.8367 30.2332 89.4477 29.6582C89.0588 29.0832 88.8643 28.4406 88.8643 27.7304C88.8643 26.8172 89.0926 26.0985 89.5492 25.5743C90.0227 25.0501 90.7921 24.678 91.8575 24.4582C92.9398 24.2384 94.411 24.1284 96.2711 24.1284H97.4126V25.4728H96.2965C94.9268 25.4728 93.8445 25.5405 93.0497 25.6758C92.2718 25.7941 91.7222 26.0055 91.4009 26.3099C91.0965 26.6143 90.9443 27.0455 90.9443 27.6036C90.9443 28.2969 91.1811 28.8634 91.6546 29.3031C92.145 29.7428 92.8045 29.9626 93.6331 29.9626C94.3095 29.9626 94.9014 29.8019 95.4087 29.4806C95.9329 29.1593 96.3388 28.7197 96.6263 28.1616C96.9307 27.6036 97.0828 26.961 97.0828 26.2338V23.3421C97.0828 22.2936 96.8715 21.5411 96.4487 21.0845C96.0259 20.611 95.3326 20.3743 94.3687 20.3743C93.7768 20.3743 93.185 20.4504 92.5931 20.6026C92.0012 20.7548 91.3755 21 90.716 21.3382C90.4793 21.4566 90.2763 21.4989 90.1072 21.465C89.9381 21.4143 89.8028 21.3213 89.7014 21.186C89.5999 21.0507 89.5407 20.8985 89.5238 20.7294C89.5069 20.5434 89.5407 20.3658 89.6253 20.1967C89.7268 20.0276 89.8789 19.8923 90.0819 19.7909C90.8259 19.4189 91.5615 19.1483 92.2887 18.9792C93.0159 18.8101 93.7092 18.7255 94.3687 18.7255C95.4341 18.7255 96.3134 18.9031 97.0068 19.2582C97.7001 19.5964 98.2159 20.1206 98.5541 20.8309C98.8923 21.5242 99.0614 22.4205 99.0614 23.5197V30.3938C99.0614 30.732 98.9768 30.9941 98.8077 31.1802C98.6555 31.3662 98.4272 31.4592 98.1228 31.4592C97.8015 31.4592 97.5563 31.3662 97.3872 31.1802C97.2181 30.9941 97.1336 30.732 97.1336 30.3938V28.4153H97.3619C97.2266 29.0579 96.9645 29.6075 96.5755 30.0641C96.2035 30.5206 95.7385 30.8758 95.1804 31.1294C94.6224 31.3831 93.9967 31.5099 93.3033 31.5099ZM106.627 31.5099C105.41 31.5099 104.48 31.1379 103.837 30.3938C103.195 29.6497 102.873 28.5844 102.873 27.1977V14.2611C102.873 13.9229 102.958 13.6693 103.127 13.5002C103.296 13.3141 103.55 13.2211 103.888 13.2211C104.209 13.2211 104.463 13.3141 104.649 13.5002C104.835 13.6693 104.928 13.9229 104.928 14.2611V27.0455C104.928 27.9587 105.105 28.6436 105.461 29.1002C105.833 29.5398 106.374 29.7597 107.084 29.7597C107.236 29.7597 107.371 29.7512 107.49 29.7343C107.608 29.7174 107.727 29.7089 107.845 29.7089C108.031 29.692 108.158 29.7343 108.225 29.8358C108.31 29.9372 108.352 30.1402 108.352 30.4445C108.352 30.7489 108.285 30.9772 108.149 31.1294C108.014 31.2816 107.794 31.3831 107.49 31.4338C107.355 31.4507 107.211 31.4676 107.059 31.4845C106.906 31.5015 106.763 31.5099 106.627 31.5099ZM115.81 31.5099C114.508 31.5099 113.384 31.2563 112.437 30.7489C111.506 30.2247 110.779 29.4891 110.255 28.5421C109.748 27.5951 109.494 26.4621 109.494 25.1431C109.494 23.8579 109.748 22.7418 110.255 21.7948C110.762 20.8309 111.456 20.0784 112.335 19.5372C113.231 18.9961 114.263 18.7255 115.43 18.7255C116.258 18.7255 117.002 18.8693 117.662 19.1567C118.321 19.4273 118.879 19.8247 119.336 20.3489C119.81 20.8732 120.165 21.5073 120.401 22.2514C120.655 22.9954 120.782 23.8325 120.782 24.7626C120.782 25.0332 120.706 25.2361 120.554 25.3714C120.401 25.4897 120.182 25.5489 119.894 25.5489H111.067V24.2045H119.412L119.006 24.5343C119.006 23.6211 118.871 22.8517 118.6 22.226C118.33 21.5834 117.932 21.093 117.408 20.7548C116.901 20.4166 116.258 20.2475 115.48 20.2475C114.618 20.2475 113.882 20.4504 113.274 20.8563C112.682 21.2452 112.234 21.7948 111.929 22.505C111.625 23.1984 111.473 24.0101 111.473 24.9402V25.0923C111.473 26.6481 111.845 27.8319 112.589 28.6436C113.35 29.4553 114.424 29.8611 115.81 29.8611C116.385 29.8611 116.952 29.785 117.51 29.6328C118.085 29.4806 118.643 29.227 119.184 28.8719C119.421 28.7197 119.632 28.652 119.818 28.6689C120.021 28.6689 120.182 28.7281 120.3 28.8465C120.418 28.948 120.494 29.0832 120.528 29.2523C120.579 29.4045 120.562 29.5736 120.477 29.7597C120.41 29.9457 120.266 30.1063 120.046 30.2416C119.488 30.6475 118.829 30.9603 118.068 31.1802C117.307 31.4 116.554 31.5099 115.81 31.5099ZM128.702 31.5099C127.738 31.5099 126.926 31.3408 126.267 31.0026C125.624 30.6475 125.142 30.1402 124.821 29.4806C124.5 28.8042 124.339 27.9841 124.339 27.0202V20.5519H122.639C122.352 20.5519 122.132 20.4842 121.98 20.3489C121.828 20.1967 121.752 19.9938 121.752 19.7402C121.752 19.4865 121.828 19.292 121.98 19.1567C122.132 19.0215 122.352 18.9538 122.639 18.9538H124.339V16.0367C124.339 15.6985 124.432 15.4449 124.618 15.2758C124.804 15.0897 125.058 14.9967 125.379 14.9967C125.7 14.9967 125.945 15.0897 126.114 15.2758C126.3 15.4449 126.393 15.6985 126.393 16.0367V18.9538H129.59C129.877 18.9538 130.097 19.0215 130.249 19.1567C130.401 19.292 130.477 19.4865 130.477 19.7402C130.477 19.9938 130.401 20.1967 130.249 20.3489C130.097 20.4842 129.877 20.5519 129.59 20.5519H126.393V26.8172C126.393 27.7811 126.596 28.5167 127.002 29.0241C127.408 29.5145 128.068 29.7597 128.981 29.7597C129.302 29.7597 129.573 29.7258 129.793 29.6582C130.029 29.5906 130.224 29.5567 130.376 29.5567C130.528 29.5398 130.655 29.5906 130.756 29.7089C130.858 29.8273 130.909 30.0302 130.909 30.3177C130.909 30.5206 130.866 30.7067 130.782 30.8758C130.714 31.0449 130.587 31.1632 130.401 31.2309C130.198 31.2985 129.928 31.3577 129.59 31.4084C129.268 31.4761 128.972 31.5099 128.702 31.5099ZM137.248 31.5099C136.284 31.5099 135.472 31.3408 134.813 31.0026C134.17 30.6475 133.688 30.1402 133.367 29.4806C133.046 28.8042 132.885 27.9841 132.885 27.0202V20.5519H131.185C130.898 20.5519 130.678 20.4842 130.526 20.3489C130.374 20.1967 130.298 19.9938 130.298 19.7402C130.298 19.4865 130.374 19.292 130.526 19.1567C130.678 19.0215 130.898 18.9538 131.185 18.9538H132.885V16.0367C132.885 15.6985 132.978 15.4449 133.164 15.2758C133.35 15.0897 133.604 14.9967 133.925 14.9967C134.246 14.9967 134.491 15.0897 134.661 15.2758C134.847 15.4449 134.94 15.6985 134.94 16.0367V18.9538H138.136C138.423 18.9538 138.643 19.0215 138.795 19.1567C138.947 19.292 139.024 19.4865 139.024 19.7402C139.024 19.9938 138.947 20.1967 138.795 20.3489C138.643 20.4842 138.423 20.5519 138.136 20.5519H134.94V26.8172C134.94 27.7811 135.143 28.5167 135.548 29.0241C135.954 29.5145 136.614 29.7597 137.527 29.7597C137.848 29.7597 138.119 29.7258 138.339 29.6582C138.575 29.5906 138.77 29.5567 138.922 29.5567C139.074 29.5398 139.201 29.5906 139.303 29.7089C139.404 29.8273 139.455 30.0302 139.455 30.3177C139.455 30.5206 139.412 30.7067 139.328 30.8758C139.26 31.0449 139.133 31.1632 138.947 31.2309C138.744 31.2985 138.474 31.3577 138.136 31.4084C137.814 31.4761 137.518 31.5099 137.248 31.5099ZM146.601 31.5099C145.299 31.5099 144.174 31.2563 143.227 30.7489C142.297 30.2247 141.57 29.4891 141.046 28.5421C140.539 27.5951 140.285 26.4621 140.285 25.1431C140.285 23.8579 140.539 22.7418 141.046 21.7948C141.553 20.8309 142.246 20.0784 143.126 19.5372C144.022 18.9961 145.054 18.7255 146.22 18.7255C147.049 18.7255 147.793 18.8693 148.453 19.1567C149.112 19.4273 149.67 19.8247 150.127 20.3489C150.6 20.8732 150.955 21.5073 151.192 22.2514C151.446 22.9954 151.573 23.8325 151.573 24.7626C151.573 25.0332 151.497 25.2361 151.344 25.3714C151.192 25.4897 150.972 25.5489 150.685 25.5489H141.858V24.2045H150.203L149.797 24.5343C149.797 23.6211 149.662 22.8517 149.391 22.226C149.121 21.5834 148.723 21.093 148.199 20.7548C147.692 20.4166 147.049 20.2475 146.271 20.2475C145.409 20.2475 144.673 20.4504 144.064 20.8563C143.472 21.2452 143.024 21.7948 142.72 22.505C142.416 23.1984 142.263 24.0101 142.263 24.9402V25.0923C142.263 26.6481 142.635 27.8319 143.379 28.6436C144.14 29.4553 145.214 29.8611 146.601 29.8611C147.176 29.8611 147.742 29.785 148.3 29.6328C148.875 29.4806 149.433 29.227 149.975 28.8719C150.211 28.7197 150.423 28.652 150.609 28.6689C150.812 28.6689 150.972 28.7281 151.091 28.8465C151.209 28.948 151.285 29.0832 151.319 29.2523C151.37 29.4045 151.353 29.5736 151.268 29.7597C151.201 29.9457 151.057 30.1063 150.837 30.2416C150.279 30.6475 149.619 30.9603 148.859 31.1802C148.098 31.4 147.345 31.5099 146.601 31.5099ZM160.101 31.5099C158.799 31.5099 157.675 31.2563 156.728 30.7489C155.798 30.2247 155.07 29.4891 154.546 28.5421C154.039 27.5951 153.785 26.4621 153.785 25.1431C153.785 23.8579 154.039 22.7418 154.546 21.7948C155.054 20.8309 155.747 20.0784 156.626 19.5372C157.522 18.9961 158.554 18.7255 159.721 18.7255C160.549 18.7255 161.294 18.8693 161.953 19.1567C162.613 19.4273 163.171 19.8247 163.627 20.3489C164.101 20.8732 164.456 21.5073 164.693 22.2514C164.946 22.9954 165.073 23.8325 165.073 24.7626C165.073 25.0332 164.997 25.2361 164.845 25.3714C164.693 25.4897 164.473 25.5489 164.185 25.5489H155.358V24.2045H163.703L163.297 24.5343C163.297 23.6211 163.162 22.8517 162.892 22.226C162.621 21.5834 162.224 21.093 161.699 20.7548C161.192 20.4166 160.549 20.2475 159.772 20.2475C158.909 20.2475 158.174 20.4504 157.565 20.8563C156.973 21.2452 156.525 21.7948 156.22 22.505C155.916 23.1984 155.764 24.0101 155.764 24.9402V25.0923C155.764 26.6481 156.136 27.8319 156.88 28.6436C157.641 29.4553 158.715 29.8611 160.101 29.8611C160.676 29.8611 161.243 29.785 161.801 29.6328C162.376 29.4806 162.934 29.227 163.475 28.8719C163.712 28.7197 163.923 28.652 164.109 28.6689C164.312 28.6689 164.473 28.7281 164.591 28.8465C164.709 28.948 164.786 29.0832 164.819 29.2523C164.87 29.4045 164.853 29.5736 164.769 29.7597C164.701 29.9457 164.557 30.1063 164.337 30.2416C163.779 30.6475 163.12 30.9603 162.359 31.1802C161.598 31.4 160.845 31.5099 160.101 31.5099ZM169.087 31.4592C168.748 31.4592 168.486 31.3662 168.3 31.1802C168.131 30.9941 168.047 30.732 168.047 30.3938V19.8163C168.047 19.478 168.131 19.2244 168.3 19.0553C168.469 18.8693 168.715 18.7763 169.036 18.7763C169.357 18.7763 169.602 18.8693 169.771 19.0553C169.957 19.2244 170.05 19.478 170.05 19.8163V21.8709H169.797C170.067 20.8732 170.583 20.1037 171.344 19.5626C172.105 19.0215 173.044 18.734 174.16 18.7002C174.413 18.6832 174.616 18.7424 174.769 18.8777C174.921 18.9961 175.005 19.2075 175.022 19.5119C175.039 19.7993 174.971 20.0276 174.819 20.1967C174.667 20.3658 174.43 20.4673 174.109 20.5011L173.703 20.5519C172.553 20.6533 171.665 21.0254 171.04 21.668C170.431 22.2936 170.127 23.1561 170.127 24.2553V30.3938C170.127 30.732 170.034 30.9941 169.848 31.1802C169.678 31.3662 169.425 31.4592 169.087 31.4592Z" fill="#203131"/>
</svg>
